<svg xmlns="http://www.w3.org/2000/svg" xmlns:xlink="http://www.w3.org/1999/xlink" xmlns:lucid="lucid" width="2601" height="1723.5"><g transform="translate(-1639.5 -357)" lucid:page-tab-id="0_0"><path d="M2620 468a8 8 0 0 1 8-8h784a8 8 0 0 1 8 8v1584a8 8 0 0 1-8 8h-784a8 8 0 0 1-8-8z" stroke="#333" fill-opacity="0"/><use xlink:href="#a" transform="matrix(1,0,0,1,2628,468) translate(353.075 15.6)"/><path d="M3420 468a8 8 0 0 1 8-8h784a8 8 0 0 1 8 8v1584a8 8 0 0 1-8 8h-784a8 8 0 0 1-8-8z" stroke="#333" fill-opacity="0"/><use xlink:href="#a" transform="matrix(1,0,0,1,3428,468) translate(353.075 15.6)"/><path d="M1820 468a8 8 0 0 1 8-8h784a8 8 0 0 1 8 8v1584a8 8 0 0 1-8 8h-784a8 8 0 0 1-8-8z" stroke="#333" fill-opacity="0"/><use xlink:href="#a" transform="matrix(1,0,0,1,1828,468) translate(353.075 15.6)"/><path d="M1960 388a8 8 0 0 1 8-8h524a8 8 0 0 1 8 8v44a8 8 0 0 1-8 8h-524a8 8 0 0 1-8-8z" fill="#fff"/><use xlink:href="#b" transform="matrix(1,0,0,1,1960,380) translate(135.03709876543223 37.18777777777774)"/><use xlink:href="#c" transform="matrix(1,0,0,1,1960,380) translate(231.01179012345682 37.18777777777774)"/><path d="M2740 388a8 8 0 0 1 8-8h524a8 8 0 0 1 8 8v44a8 8 0 0 1-8 8h-524a8 8 0 0 1-8-8z" fill="#fff"/><use xlink:href="#d" transform="matrix(1,0,0,1,2740,380) translate(159.5614814814816 37.18777777777774)"/><use xlink:href="#e" transform="matrix(1,0,0,1,2740,380) translate(266.709012345679 37.18777777777774)"/><path d="M3550 388a8 8 0 0 1 8-8h524a8 8 0 0 1 8 8v44a8 8 0 0 1-8 8h-524a8 8 0 0 1-8-8z" fill="#fff"/><use xlink:href="#b" transform="matrix(1,0,0,1,3550,380) translate(162.91333333333344 37.18777777777774)"/><use xlink:href="#f" transform="matrix(1,0,0,1,3550,380) translate(258.88802469135805 37.18777777777774)"/><path d="M1735 600c0 22.1-16.8 40-37.5 40s-37.5-17.9-37.5-40 16.8-40 37.5-40 37.5 17.9 37.5 40z" stroke="#333"/><path d="M2134 700c-13.26 0-24 10.75-24 24v72c0 13.25 10.74 24 24 24h172c13.26 0 24-10.75 24-24v-72c0-13.25-10.74-24-24-24z" stroke="#333" fill="#00c2a8"/><use xlink:href="#g" transform="matrix(1,0,0,1,2118,708) translate(71.90740740740742 31.377777777777784)"/><use xlink:href="#h" transform="matrix(1,0,0,1,2118,708) translate(17.00000000000001 58.04444444444445)"/><use xlink:href="#i" transform="matrix(1,0,0,1,2118,708) translate(138.97530864197532 58.04444444444445)"/><use xlink:href="#j" transform="matrix(1,0,0,1,2118,708) translate(72.40123456790124 84.71111111111111)"/><path d="M1697.5 641v107a12 12 0 0 0 12 12h383.62" stroke="#333" fill="none"/><path d="M1697.5 640.5l.5-.02v.53h-1v-.53z" stroke="#333" stroke-width=".05" fill="#333"/><path d="M2107.88 760l-14.26 4.63v-9.26z" stroke="#333" fill="#333"/><path d="M2214.1 923.1a8.78 8.78 0 0 1 11.8 0l88.2 80.37a7.3 7.3 0 0 1 0 10.77l-88.2 80.37a8.78 8.78 0 0 1-11.8 0l-88.2-80.36a7.3 7.3 0 0 1 0-10.77z" stroke="#333" fill="#fff"/><path d="M2220 821v93.14" stroke="#333" fill="none"/><path d="M2220.5 821h-1v-.5h1z" stroke="#333" stroke-width=".05" fill="#333"/><path d="M2220 928.9l-4.64-14.26h9.28z" stroke="#333" fill="#333"/><path d="M2180 986.03a8 8 0 0 1 8-8h69a8 8 0 0 1 8 8v45.65a8 8 0 0 1-8 8h-69a8 8 0 0 1-8-8z" stroke="#333" fill="#fff"/><use xlink:href="#k" transform="matrix(1,0,0,1,2185,983.0293804791168) translate(7.050000000000001 17.65)"/><use xlink:href="#l" transform="matrix(1,0,0,1,2185,983.0293804791168) translate(7.524999999999999 39.25)"/><use xlink:href="#m" transform="matrix(1,0,0,1,2185,983.0293804791168) translate(22.525 39.25)"/><path d="M2053.7 1160.83c-7.57 0-13.7 6.13-13.7 13.7v41.1c0 7.56 6.13 13.7 13.7 13.7h92.25c7.56 0 13.7-6.14 13.7-13.7v-41.1c0-7.57-6.14-13.7-13.7-13.7z" stroke="#333" fill="#ff80df"/><use xlink:href="#n" transform="matrix(1,0,0,1,2048,1168.826096205181) translate(24.87037037037037 32.544444444444444)"/><path d="M2220 1097.9v18.96a12 12 0 0 1-12 12h-96.18a12 12 0 0 0-12 12v3.08" stroke="#333" fill="none"/><path d="M2220 1097.4l.5-.03v.55h-1v-.55z" stroke="#333" stroke-width=".05" fill="#333"/><path d="M2099.82 1158.7l-4.63-14.26h9.26z" stroke="#333" fill="#333"/><path d="M2085.4 1100c-1.48 0-2.7 1.2-2.7 2.7v5c0 1.5-1.2 2.7-2.7 2.7 1.5 0 2.7 1.22 2.7 2.72v5c0 1.5 1.22 2.7 2.72 2.7m108.8 0c1.5 0 2.72-1.2 2.72-2.7v-5c0-1.5 1.2-2.7 2.7-2.7-1.5 0-2.7-1.22-2.7-2.7v-5c0-1.5-1.2-2.72-2.7-2.72" stroke="#333" fill="none"/><use xlink:href="#o" transform="matrix(1,0,0,1,2084.0610887600105,1100) translate(41.325 14.4)"/><path d="M2312.2 1160.83c-6.74 0-12.2 5.46-12.2 12.2v36.6c0 6.72 5.46 12.2 12.2 12.2h95.25c6.74 0 12.2-5.47 12.2-12.2v-36.6c0-6.74-5.47-12.2-12.2-12.2z" stroke="#333" fill="#ff80df"/><use xlink:href="#p" transform="matrix(1,0,0,1,2308,1168.826096205181) translate(10.73456790123456 28.544444444444444)"/><path d="M2220 1097.9v18.96a12 12 0 0 0 12 12h115.82a12 12 0 0 1 12 12v3.08" stroke="#333" fill="none"/><path d="M2220 1097.4l.5-.03v.55h-1v-.55z" stroke="#333" stroke-width=".05" fill="#333"/><path d="M2359.82 1158.7l-4.63-14.26h9.26z" stroke="#333" fill="#333"/><path d="M2285.4 1100c-1.48 0-2.7 1.2-2.7 2.7v5c0 1.5-1.2 2.7-2.7 2.7 1.5 0 2.7 1.22 2.7 2.72v5c0 1.5 1.22 2.7 2.72 2.7m89.16 0c1.5 0 2.7-1.2 2.7-2.7v-5c0-1.5 1.22-2.7 2.72-2.7-1.5 0-2.7-1.22-2.7-2.7v-5c0-1.5-1.22-2.72-2.72-2.72" stroke="#333" fill="none"/><use xlink:href="#q" transform="matrix(1,0,0,1,2284.0610887600105,1100) translate(34.525 14.4)"/><path d="M2756 1155.07c-8.84 0-16 7.17-16 16v48c0 8.84 7.16 16 16 16h128c8.84 0 16-7.16 16-16v-48c0-8.83-7.16-16-16-16z" stroke="#333" fill="#ff80df"/><use xlink:href="#r" transform="matrix(1,0,0,1,2748,1163.073327673347) translate(-11.474999999999994 14.4)"/><use xlink:href="#s" transform="matrix(1,0,0,1,2748,1163.073327673347) translate(15.024999999999999 36)"/><use xlink:href="#t" transform="matrix(1,0,0,1,2748,1163.073327673347) translate(50.025 36)"/><use xlink:href="#u" transform="matrix(1,0,0,1,2748,1163.073327673347) translate(94.025 36)"/><use xlink:href="#v" transform="matrix(1,0,0,1,2748,1163.073327673347) translate(25.599999999999994 57.6)"/><path d="M2420.65 1191.32h302.47" stroke="#333" fill="none"/><path d="M2420.66 1191.82h-.5v-1h.5z" stroke="#333" stroke-width=".05" fill="#333"/><path d="M2737.88 1191.32l-14.26 4.64v-9.27z" stroke="#333" fill="#333"/><path d="M1913.7 1331.5c-7.57 0-13.7 6.14-13.7 13.7v41.1c0 7.57 6.13 13.7 13.7 13.7h112.6c7.57 0 13.7-6.13 13.7-13.7v-41.1c0-7.56-6.13-13.7-13.7-13.7z" stroke="#54c45e" fill="#54c45e"/><use xlink:href="#w" transform="matrix(1,0,0,1,1908,1339.505537063668) translate(29.525 19.299999999999997)"/><use xlink:href="#x" transform="matrix(1,0,0,1,1908,1339.505537063668) translate(33.075 40.9)"/><path d="M2122.36 1334.86c-6.83 0-12.36 5.53-12.36 12.36v37.07c0 6.82 5.53 12.35 12.36 12.35h124.25c6.84 0 12.37-5.54 12.37-12.36v-37.08c0-6.83-5.53-12.36-12.36-12.36z" stroke="#333" fill="#54c45e"/><use xlink:href="#y" transform="matrix(1,0,0,1,2118,1342.8575668196763) translate(25.025 26.6)"/><use xlink:href="#z" transform="matrix(1,0,0,1,2118,1342.8575668196763) translate(71.025 26.6)"/><path d="M2099.82 1230.32v38.1a12 12 0 0 1-12 12H1982a12 12 0 0 0-12 12v22.2" stroke="#333" fill="none"/><path d="M2100.32 1230.33h-1v-.5h1z" stroke="#333" stroke-width=".05" fill="#333"/><path d="M1970 1329.4l-4.63-14.28h9.27z" stroke="#333" fill="#333"/><path d="M2099.82 1230.32v39.77a12 12 0 0 0 12 12h60.66a12 12 0 0 1 12 12v23.87" stroke="#333" fill="none"/><path d="M2100.32 1230.33h-1v-.5h1z" stroke="#333" stroke-width=".05" fill="#333"/><path d="M2184.5 1332.74l-4.65-14.27h9.27z" stroke="#333" fill="#333"/><path d="M2075.65 1496.97c-8.45 0-15.3 6.85-15.3 15.3v45.9c0 8.45 6.85 15.3 15.3 15.3h89.05c8.45 0 15.3-6.85 15.3-15.3v-45.9c0-8.45-6.85-15.3-15.3-15.3z" stroke="#54c45e" fill="#54c45e"/><use xlink:href="#A" transform="matrix(1,0,0,1,2068.353672835726,1504.9715575361126) translate(17.574999999999996 23.299999999999997)"/><use xlink:href="#z" transform="matrix(1,0,0,1,2068.353672835726,1504.9715575361126) translate(33.525 44.9)"/><path d="M2294.1 1500c-7.8 0-14.1 6.3-14.1 14.1v42.25c0 7.78 6.3 14.1 14.1 14.1h91.46c7.78 0 14.1-6.32 14.1-14.1v-42.26c0-7.8-6.32-14.1-14.1-14.1z" stroke="#333" fill="#54c45e"/><use xlink:href="#B" transform="matrix(1,0,0,1,2288,1508) translate(1.5749999999999957 31.1)"/><use xlink:href="#C" transform="matrix(1,0,0,1,2288,1508) translate(62.475 31.1)"/><path d="M2184.5 1397.65v37.16a12 12 0 0 1-12 12h-40.32a12 12 0 0 0-12 12v21.3" stroke="#333" fill="none"/><path d="M2185 1397.66h-1v-.5h1z" stroke="#333" stroke-width=".05" fill="#333"/><path d="M2120.18 1494.85l-4.64-14.26h9.27z" stroke="#333" fill="#333"/><path d="M2184.5 1397.65v38.67a12 12 0 0 0 12 12h131.32a12 12 0 0 1 12 12v22.8" stroke="#333" fill="none"/><path d="M2185 1397.66h-1v-.5h1z" stroke="#333" stroke-width=".05" fill="#333"/><path d="M2339.82 1497.88l-4.63-14.26h9.26z" stroke="#333" fill="#333"/><path d="M2976 968.86c-8.84 0-16 7.16-16 16v48c0 8.83 7.16 16 16 16h128c8.84 0 16-7.17 16-16v-48c0-8.84-7.16-16-16-16z" stroke="#333" fill="#ff80df"/><use xlink:href="#D" transform="matrix(1,0,0,1,2968,976.8554766842979) translate(22.074999999999996 35.6)"/><use xlink:href="#E" transform="matrix(1,0,0,1,2968,976.8554766842979) translate(77.975 35.6)"/><path d="M2777.7 1080h78.64a12 12 0 0 0 12-12v-48.14a12 12 0 0 1 12-12h62.78" stroke="#333" fill="none"/><path d="M2777.7 1080.5h-.55l.04-.5-.05-.5h.55z" stroke="#333" stroke-width=".05" fill="#333"/><path d="M2957.88 1007.86l-14.26 4.63v-9.28z" stroke="#333" fill="#333"/><path d="M2317.4 1007.86h200.45a12 12 0 0 1 12 12V1068a12 12 0 0 0 12 12h184.58" stroke="#333" fill="none"/><path d="M2317.4 1008.36h-.47l-.07-.8-.05-.2h.6z" stroke="#333" stroke-width=".05" fill="#333"/><path d="M2741.2 1080l-14.27 4.63v-9.27z" stroke="#333" fill="#333"/><path d="M2956 1149.32c-8.84 0-16 7.16-16 16v48c0 8.84 7.16 16 16 16h128c8.84 0 16-7.16 16-16v-48c0-8.84-7.16-16-16-16z" stroke="#333" fill="#54c45e"/><use xlink:href="#F" transform="matrix(1,0,0,1,2948,1157.320559141513) translate(8.074999999999996 24.799999999999997)"/><use xlink:href="#G" transform="matrix(1,0,0,1,2948,1157.320559141513) translate(78.975 24.799999999999997)"/><use xlink:href="#H" transform="matrix(1,0,0,1,2948,1157.320559141513) translate(120.92500000000001 24.799999999999997)"/><use xlink:href="#I" transform="matrix(1,0,0,1,2948,1157.320559141513) translate(48.525 46.4)"/><path d="M3196 1149.32c-8.84 0-16 7.16-16 16v48c0 8.84 7.16 16 16 16h128c8.84 0 16-7.16 16-16v-48c0-8.84-7.16-16-16-16z" stroke="#333" fill="#54c45e"/><use xlink:href="#J" transform="matrix(1,0,0,1,3188,1157.320559141513) translate(0.07499999999998863 24.799999999999997)"/><use xlink:href="#K" transform="matrix(1,0,0,1,3188,1157.320559141513) translate(72.02499999999999 24.799999999999997)"/><use xlink:href="#L" transform="matrix(1,0,0,1,3188,1157.320559141513) translate(109.975 24.799999999999997)"/><use xlink:href="#M" transform="matrix(1,0,0,1,3188,1157.320559141513) translate(42.025 46.4)"/><path d="M3040 1049.86v39.23a10 10 0 0 1-10 10 10 10 0 0 0-10 10v23.34" stroke="#333" fill="none"/><path d="M3040.5 1049.87h-1v-.5h1z" stroke="#333" stroke-width=".05" fill="#333"/><path d="M3020 1147.2l-4.64-14.26h9.28z" stroke="#333" fill="#333"/><path d="M3776 968.86c-8.84 0-16 7.16-16 16v48c0 8.83 7.16 16 16 16h128c8.84 0 16-7.17 16-16v-48c0-8.84-7.16-16-16-16z" stroke="#333" fill="#ff80df"/><use xlink:href="#N" transform="matrix(1,0,0,1,3768,976.8554766842979) translate(24.074999999999996 24.799999999999997)"/><use xlink:href="#O" transform="matrix(1,0,0,1,3768,976.8554766842979) translate(67.025 24.799999999999997)"/><use xlink:href="#E" transform="matrix(1,0,0,1,3768,976.8554766842979) translate(50.025 46.4)"/><path d="M2754.34 1065.66a8 8 0 0 1 11.32 0l8.68 8.68a8 8 0 0 1 0 11.32l-8.68 8.68a8 8 0 0 1-11.32 0l-8.68-8.68a8 8 0 0 1 0-11.32z" stroke="#333" fill="#fff"/><path d="M2777.7 1080h95.92" stroke="#333" fill="none"/><path d="M2777.7 1080.5h-.55l.04-.5-.05-.5h.55z" stroke="#333" stroke-width=".05" fill="#333"/><path d="M2888.38 1080l-14.26 4.63v-9.27z" stroke="#333" fill="#333"/><path d="M3030.5 1080h352.25a12 12 0 0 0 12-12v-47.14a12 12 0 0 1 12-12h336.37" stroke="#333" fill="none"/><path d="M3030.5 1080.5h-.5v-1h.5z" stroke="#333" stroke-width=".05" fill="#333"/><path d="M3757.88 1008.86l-14.26 4.63v-9.28z" stroke="#333" fill="#333"/><path d="M3596 1149.32c-8.84 0-16 7.16-16 16v48c0 8.84 7.16 16 16 16h128c8.84 0 16-7.16 16-16v-48c0-8.84-7.16-16-16-16z" stroke="#333" fill="#54c45e"/><use xlink:href="#P" transform="matrix(1,0,0,1,3588,1157.320559141513) translate(1.5999999999999943 14.4)"/><use xlink:href="#Q" transform="matrix(1,0,0,1,3588,1157.320559141513) translate(73.45 14.4)"/><use xlink:href="#R" transform="matrix(1,0,0,1,3588,1157.320559141513) translate(112.4 14.4)"/><use xlink:href="#S" transform="matrix(1,0,0,1,3588,1157.320559141513) translate(3.6000000000000085 36)"/><use xlink:href="#T" transform="matrix(1,0,0,1,3588,1157.320559141513) translate(47.50000000000001 36)"/><use xlink:href="#U" transform="matrix(1,0,0,1,3588,1157.320559141513) translate(119.45 36)"/><use xlink:href="#V" transform="matrix(1,0,0,1,3588,1157.320559141513) translate(29.1 57.6)"/><path d="M3579 1189.32h-222.12" stroke="#333" fill="none"/><path d="M3579.5 1189.82h-.5v-1h.5z" stroke="#333" stroke-width=".05" fill="#333"/><path d="M3342.12 1189.32l14.26-4.63v9.26z" stroke="#333" fill="#333"/><path d="M3596 1325.75c-8.84 0-16 7.17-16 16v48c0 8.84 7.16 16 16 16h128c8.84 0 16-7.16 16-16v-48c0-8.83-7.16-16-16-16z" stroke="#333" fill="#54c45e"/><use xlink:href="#W" transform="matrix(1,0,0,1,3588,1333.752768531834) translate(16.074999999999996 14.4)"/><use xlink:href="#X" transform="matrix(1,0,0,1,3588,1333.752768531834) translate(53.074999999999996 14.4)"/><use xlink:href="#Y" transform="matrix(1,0,0,1,3588,1333.752768531834) translate(96.025 14.4)"/><use xlink:href="#Z" transform="matrix(1,0,0,1,3588,1333.752768531834) translate(38.55 36)"/><use xlink:href="#aa" transform="matrix(1,0,0,1,3588,1333.752768531834) translate(27.549999999999997 57.6)"/><path d="M3260 1230.32v123.43a12 12 0 0 0 12 12h291.12" stroke="#333" fill="none"/><path d="M3260.5 1230.33h-1v-.5h1z" stroke="#333" stroke-width=".05" fill="#333"/><path d="M3577.88 1365.75l-14.26 4.64v-9.28z" stroke="#333" fill="#333"/><path d="M3840 1049.86v37.23a12 12 0 0 1-12 12h-156a12 12 0 0 0-12 12v21.34" stroke="#333" fill="none"/><path d="M3840.5 1049.87h-1v-.5h1z" stroke="#333" stroke-width=".05" fill="#333"/><path d="M3660 1147.2l-4.64-14.26h9.28z" stroke="#333" fill="#333"/><path d="M3758 1200c-4.42 0-8 3.58-8 8v24c0 4.42 3.58 8 8 8h164c4.42 0 8-3.58 8-8v-24c0-4.42-3.58-8-8-8z" stroke="#333" fill="#54c45e"/><use xlink:href="#ab" transform="matrix(1,0,0,1,3758,1208) translate(39.599999999999994 15.6)"/><use xlink:href="#ac" transform="matrix(1,0,0,1,3758,1208) translate(75.55 15.6)"/><path d="M3840 1049.86v133.26" stroke="#333" fill="none"/><path d="M3840.5 1049.87h-1v-.5h1z" stroke="#333" stroke-width=".05" fill="#333"/><path d="M3840 1197.88l-4.64-14.26h9.28z" stroke="#333" fill="#333"/><path d="M3996 1151.32c-8.84 0-16 7.16-16 16v48c0 8.84 7.16 16 16 16h108c8.84 0 16-7.16 16-16v-48c0-8.84-7.16-16-16-16z" stroke="#333" fill="#54c45e"/><use xlink:href="#ad" transform="matrix(1,0,0,1,3988,1159.320935288508) translate(7.074999999999996 35.6)"/><use xlink:href="#ae" transform="matrix(1,0,0,1,3988,1159.320935288508) translate(78.975 35.6)"/><path d="M3840 1049.86v38.23a12 12 0 0 0 12 12h186a12 12 0 0 1 12 12v22.34" stroke="#333" fill="none"/><path d="M3840.5 1049.87h-1v-.5h1z" stroke="#333" stroke-width=".05" fill="#333"/><path d="M4050 1149.2l-4.64-14.26h9.28z" stroke="#333" fill="#333"/><path d="M3660 1406.75v27.5a12 12 0 0 1-12 12H2392a12 12 0 0 1-12-12v-56.5a12 12 0 0 0-12-12h-92.15" stroke="#333" fill="none"/><path d="M3660.5 1406.77h-1v-.52h1z" stroke="#333" stroke-width=".05" fill="#333"/><path d="M2261.1 1365.75l14.25-4.63v9.27z" stroke="#333" fill="#333"/><path d="M3579 1365.75h-547a12 12 0 0 1-12-12V1246.2" stroke="#333" fill="none"/><path d="M3579.5 1366.25h-.5v-1h.5z" stroke="#333" stroke-width=".05" fill="#333"/><path d="M3020 1231.44l4.64 14.26h-9.28z" stroke="#333" fill="#333"/><path d="M2237.5 1800c0 11.05-8.95 20-20 20s-20-8.95-20-20 8.95-20 20-20 20 8.95 20 20z" stroke="#333"/><path d="M2339.82 1571.44v91.78a12 12 0 0 1-12 12h-98.32a12 12 0 0 0-12 12v75.9" stroke="#333" fill="none"/><path d="M2340.32 1571.45h-1v-.5h1z" stroke="#333" stroke-width=".05" fill="#333"/><path d="M2217.5 1777.88l-4.64-14.26h9.28z" stroke="#333" fill="#333"/><path d="M2120.18 1574.46v90.27a12 12 0 0 0 12 12h73.32a12 12 0 0 1 12 12v74.4" stroke="#333" fill="none"/><path d="M2120.68 1574.48h-1v-.52h1z" stroke="#333" stroke-width=".05" fill="#333"/><path d="M2217.5 1777.88l-4.64-14.26h9.28z" stroke="#333" fill="#333"/><path d="M1960 1255.5a8 8 0 0 1 8-8h124a8 8 0 0 1 8 8v5.82a8 8 0 0 1-8 8h-124a8 8 0 0 1-8-8z" stroke="#000" stroke-opacity="0" fill="#fff" fill-opacity="0"/><use xlink:href="#af" transform="matrix(1,0,0,1,1965,1252.504784769678) translate(31 14.4)"/><path d="M1800 728a8 8 0 0 1 8-8h184a8 8 0 0 1 8 8v24a8 8 0 0 1-8 8h-184a8 8 0 0 1-8-8z" stroke="#000" stroke-opacity="0" fill="#fff" fill-opacity="0"/><g><use xlink:href="#ag" transform="matrix(1,0,0,1,1805,725) translate(76.025 18.15)"/></g><path d="M2890 1077.1a8 8 0 0 1 8-8h124a8 8 0 0 1 8 8v5.8a8 8 0 0 1-8 8h-124a8 8 0 0 1-8-8z" stroke="#000" stroke-opacity="0" fill="#fff" fill-opacity="0"/><g><use xlink:href="#af" transform="matrix(1,0,0,1,2895,1074.0921128140826) translate(31 14.4)"/></g><path d="M3680 1077.1a8 8 0 0 1 8-8h124a8 8 0 0 1 8 8v5.8a8 8 0 0 1-8 8h-124a8 8 0 0 1-8-8z" stroke="#000" stroke-opacity="0" fill="#fff" fill-opacity="0"/><g><use xlink:href="#af" transform="matrix(1,0,0,1,3685,1074.0921128140826) translate(31 14.4)"/></g><path d="M1997.5 1408a8 8 0 0 1 8-8H2172a8 8 0 0 1 8 8v24a8 8 0 0 1-8 8h-166.5a8 8 0 0 1-8-8z" stroke="#000" stroke-opacity="0" fill="#fff" fill-opacity="0"/><g><use xlink:href="#ah" transform="matrix(1,0,0,1,2002.5,1405) translate(9.049999999999997 18.15)"/><use xlink:href="#ai" transform="matrix(1,0,0,1,2002.5,1405) translate(101 18.15)"/></g><path d="M2360 1588a8 8 0 0 1 8-8h184a8 8 0 0 1 8 8v44a8 8 0 0 1-8 8h-184a8 8 0 0 1-8-8z" stroke="#000" stroke-opacity="0" fill="#fff" fill-opacity="0"/><g><use xlink:href="#B" transform="matrix(1,0,0,1,2365,1585) translate(21.07499999999999 30.025)"/><use xlink:href="#aj" transform="matrix(1,0,0,1,2365,1585) translate(81.975 30.025)"/></g><path d="M1920 1608a8 8 0 0 1 8-8h224a8 8 0 0 1 8 8v44a8 8 0 0 1-8 8h-224a8 8 0 0 1-8-8z" stroke="#000" stroke-opacity="0" fill="#fff" fill-opacity="0"/><g><use xlink:href="#ak" transform="matrix(1,0,0,1,1925,1605) translate(51.099999999999994 30.025)"/><use xlink:href="#al" transform="matrix(1,0,0,1,1925,1605) translate(144.9 30.025)"/></g><path d="M3280 1273.75a8 8 0 0 1 8-8h104a8 8 0 0 1 8 8v44a8 8 0 0 1-8 8h-104a8 8 0 0 1-8-8z" stroke="#000" stroke-opacity="0" fill="#fff" fill-opacity="0"/><g><use xlink:href="#am" transform="matrix(1,0,0,1,3285,1270.752768531834) translate(16.525 30.025)"/></g><path d="M3440 1468a8 8 0 0 1 8-8h224a8 8 0 0 1 8 8v44a8 8 0 0 1-8 8h-224a8 8 0 0 1-8-8z" stroke="#000" stroke-opacity="0" fill="#fff" fill-opacity="0"/><g><use xlink:href="#W" transform="matrix(1,0,0,1,3445,1465) translate(54.525 30.025)"/><use xlink:href="#an" transform="matrix(1,0,0,1,3445,1465) translate(91.525 30.025)"/></g><path d="M1860 1293.75a8 8 0 0 1 8-8h166.5a8 8 0 0 1 8 8v24a8 8 0 0 1-8 8H1868a8 8 0 0 1-8-8z" stroke="#000" stroke-opacity="0" fill="#fff" fill-opacity="0"/><g><use xlink:href="#ao" transform="matrix(1,0,0,1,1865,1290.752768531834) translate(21.099999999999994 18.15)"/><use xlink:href="#ap" transform="matrix(1,0,0,1,1865,1290.752768531834) translate(76.95 18.15)"/></g><path d="M2160 1778a8 8 0 0 1 8-8h184a8 8 0 0 1 8 8v44a8 8 0 0 1-8 8h-184a8 8 0 0 1-8-8z" stroke="#000" stroke-opacity="0" fill="#fff" fill-opacity="0"/><g><use xlink:href="#aq" transform="matrix(1,0,0,1,2165,1775) translate(79 30.025)"/></g><path d="M2960 1091.4v27.5a12 12 0 0 1-12 12H1948a12 12 0 0 0-12 12v11.62" stroke="#333" fill="none"/><path d="M2960.5 1091.42h-1v-.5h1z" stroke="#333" stroke-width=".05" fill="#333"/><path d="M1936 1169.3l-4.63-14.28h9.27z" stroke="#333" fill="#333"/><path d="M1866 1178.9a8 8 0 0 1 8-8h124a8 8 0 0 1 8 8v5.82a8 8 0 0 1-8 8h-124a8 8 0 0 1-8-8z" stroke="#000" stroke-opacity="0" fill="#fff" fill-opacity="0"/><g><use xlink:href="#ar" transform="matrix(1,0,0,1,1871,1175.9078871859178) translate(48.525 14.4)"/></g><path d="M3020 1295.73a8 8 0 0 1 8-8h124a8 8 0 0 1 8 8v5.82a8 8 0 0 1-8 8h-124a8 8 0 0 1-8-8z" stroke="#000" stroke-opacity="0" fill="#fff" fill-opacity="0"/><g><use xlink:href="#as" transform="matrix(1,0,0,1,3025,1292.7332310971085) translate(8.074999999999996 14.4)"/><use xlink:href="#at" transform="matrix(1,0,0,1,3025,1292.7332310971085) translate(53.025 14.4)"/></g><path d="M3430 1341.4a8 8 0 0 1 8-8h124a8 8 0 0 1 8 8v5.83a8 8 0 0 1-8 8h-124a8 8 0 0 1-8-8z" stroke="#000" stroke-opacity="0" fill="#fff" fill-opacity="0"/><g><use xlink:href="#au" transform="matrix(1,0,0,1,3435,1338.4110475281886) translate(13.024999999999999 14.4)"/><use xlink:href="#av" transform="matrix(1,0,0,1,3435,1338.4110475281886) translate(64.975 14.4)"/></g><path d="M3430 1148a8 8 0 0 1 8-8h104a8 8 0 0 1 8 8v44a8 8 0 0 1-8 8h-104a8 8 0 0 1-8-8z" stroke="#000" stroke-opacity="0" fill="#fff" fill-opacity="0"/><g><use xlink:href="#aw" transform="matrix(1,0,0,1,3435,1145) translate(11.524999999999999 30.025)"/></g><path d="M2220 864.9a8 8 0 0 1 8-8h124a8 8 0 0 1 8 8v5.8a8 8 0 0 1-8 8h-124a8 8 0 0 1-8-8z" stroke="#000" stroke-opacity="0" fill="#fff" fill-opacity="0"/><g><use xlink:href="#ax" transform="matrix(1,0,0,1,2225,861.8848571634147) translate(5.049999999999997 14.4)"/><use xlink:href="#ay" transform="matrix(1,0,0,1,2225,861.8848571634147) translate(86.05 14.4)"/><use xlink:href="#az" transform="matrix(1,0,0,1,2225,861.8848571634147) translate(45 36)"/></g><path d="M3840 1148a8 8 0 0 1 8-8h124a8 8 0 0 1 8 8v5.82a8 8 0 0 1-8 8h-124a8 8 0 0 1-8-8z" stroke="#000" stroke-opacity="0" fill="#fff" fill-opacity="0"/><g><use xlink:href="#ao" transform="matrix(1,0,0,1,3845,1145) translate(12.599999999999994 14.4)"/><use xlink:href="#aA" transform="matrix(1,0,0,1,3845,1145) translate(68.45 14.4)"/></g><path d="M4060 1113.02a8 8 0 0 1 8-8h124a8 8 0 0 1 8 8v5.8a8 8 0 0 1-8 8h-124a8 8 0 0 1-8-8z" stroke="#000" stroke-opacity="0" fill="#fff" fill-opacity="0"/><g><use xlink:href="#aB" transform="matrix(1,0,0,1,4065,1110.0147861001374) translate(7.074999999999996 14.4)"/><use xlink:href="#aC" transform="matrix(1,0,0,1,4065,1110.0147861001374) translate(88.975 14.4)"/></g><defs><path fill="#333" d="M212-179c-10-28-35-45-73-45-59 0-87 40-87 99 0 60 29 101 89 101 43 0 62-24 78-52l27 14C228-24 195 4 139 4 59 4 22-46 18-125c-6-104 99-153 187-111 19 9 31 26 39 46" id="aD"/><path fill="#333" d="M100-194c62-1 85 37 85 99 1 63-27 99-86 99S16-35 15-95c0-66 28-99 85-99zM99-20c44 1 53-31 53-75 0-43-8-75-51-75s-53 32-53 75 10 74 51 75" id="aE"/><path fill="#333" d="M117-194c89-4 53 116 60 194h-32v-121c0-31-8-49-39-48C34-167 62-67 57 0H25l-1-190h30c1 10-1 24 2 32 11-22 29-35 61-36" id="aF"/><path fill="#333" d="M59-47c-2 24 18 29 38 22v24C64 9 27 4 27-40v-127H5v-23h24l9-43h21v43h35v23H59v120" id="aG"/><path fill="#333" d="M141-36C126-15 110 5 73 4 37 3 15-17 15-53c-1-64 63-63 125-63 3-35-9-54-41-54-24 1-41 7-42 31l-33-3c5-37 33-52 76-52 45 0 72 20 72 64v82c-1 20 7 32 28 27v20c-31 9-61-2-59-35zM48-53c0 20 12 33 32 33 41-3 63-29 60-74-43 2-92-5-92 41" id="aH"/><path fill="#333" d="M24-231v-30h32v30H24zM24 0v-190h32V0H24" id="aI"/><path fill="#333" d="M100-194c63 0 86 42 84 106H49c0 40 14 67 53 68 26 1 43-12 49-29l28 8c-11 28-37 45-77 45C44 4 14-33 15-96c1-61 26-98 85-98zm52 81c6-60-76-77-97-28-3 7-6 17-6 28h103" id="aJ"/><path fill="#333" d="M114-163C36-179 61-72 57 0H25l-1-190h30c1 12-1 29 2 39 6-27 23-49 58-41v29" id="aK"/><g id="a"><use transform="matrix(0.05,0,0,0.05,0,0)" xlink:href="#aD"/><use transform="matrix(0.05,0,0,0.05,12.950000000000001,0)" xlink:href="#aE"/><use transform="matrix(0.05,0,0,0.05,22.950000000000003,0)" xlink:href="#aF"/><use transform="matrix(0.05,0,0,0.05,32.95,0)" xlink:href="#aG"/><use transform="matrix(0.05,0,0,0.05,37.95,0)" xlink:href="#aH"/><use transform="matrix(0.05,0,0,0.05,47.95,0)" xlink:href="#aI"/><use transform="matrix(0.05,0,0,0.05,51.900000000000006,0)" xlink:href="#aF"/><use transform="matrix(0.05,0,0,0.05,61.900000000000006,0)" xlink:href="#aJ"/><use transform="matrix(0.05,0,0,0.05,71.9,0)" xlink:href="#aK"/></g><path fill="#333" d="M143 4C61 4 22-44 18-125c-5-107 100-154 193-111 17 8 29 25 37 43l-32 9c-13-25-37-40-76-40-61 0-88 39-88 99 0 61 29 100 91 101 35 0 62-11 79-27v-45h-74v-28h105v86C228-13 192 4 143 4" id="aL"/><path fill="#333" d="M179-190L93 31C79 59 56 82 12 73V49c39 6 53-20 64-50L1-190h34L92-34l54-156h33" id="aM"/><path fill="#333" d="M210-169c-67 3-38 105-44 169h-31v-121c0-29-5-50-35-48C34-165 62-65 56 0H25l-1-190h30c1 10-1 24 2 32 10-44 99-50 107 0 11-21 27-35 58-36 85-2 47 119 55 194h-31v-121c0-29-5-49-35-48" id="aN"/><g id="b"><use transform="matrix(0.11172839506172827,0,0,0.11172839506172827,0,0)" xlink:href="#aL"/><use transform="matrix(0.11172839506172827,0,0,0.11172839506172827,31.283950617283914,0)" xlink:href="#aM"/><use transform="matrix(0.11172839506172827,0,0,0.11172839506172827,51.39506172839501,0)" xlink:href="#aN"/></g><path fill="#333" d="M84 4C-5 8 30-112 23-190h32v120c0 31 7 50 39 49 72-2 45-101 50-169h31l1 190h-30c-1-10 1-25-2-33-11 22-28 36-60 37" id="aO"/><path fill="#333" d="M135-143c-3-34-86-38-87 0 15 53 115 12 119 90S17 21 10-45l28-5c4 36 97 45 98 0-10-56-113-15-118-90-4-57 82-63 122-42 12 7 21 19 24 35" id="aP"/><g id="c"><use transform="matrix(0.11172839506172827,0,0,0.11172839506172827,0,0)" xlink:href="#aD"/><use transform="matrix(0.11172839506172827,0,0,0.11172839506172827,28.937654320987622,0)" xlink:href="#aO"/><use transform="matrix(0.11172839506172827,0,0,0.11172839506172827,51.283333333333275,0)" xlink:href="#aP"/><use transform="matrix(0.11172839506172827,0,0,0.11172839506172827,71.39444444444436,0)" xlink:href="#aG"/><use transform="matrix(0.11172839506172827,0,0,0.11172839506172827,82.5672839506172,0)" xlink:href="#aE"/><use transform="matrix(0.11172839506172827,0,0,0.11172839506172827,104.91296296296285,0)" xlink:href="#aN"/><use transform="matrix(0.11172839506172827,0,0,0.11172839506172827,138.3197530864196,0)" xlink:href="#aJ"/><use transform="matrix(0.11172839506172827,0,0,0.11172839506172827,160.66543209876528,0)" xlink:href="#aK"/></g><g id="d"><use transform="matrix(0.11172839506172827,0,0,0.11172839506172827,0,0)" xlink:href="#aL"/><use transform="matrix(0.11172839506172827,0,0,0.11172839506172827,31.283950617283914,0)" xlink:href="#aM"/><use transform="matrix(0.11172839506172827,0,0,0.11172839506172827,51.39506172839501,0)" xlink:href="#aN"/></g><path fill="#333" d="M205 0l-28-72H64L36 0H1l101-248h38L239 0h-34zm-38-99l-47-123c-12 45-31 82-46 123h93" id="aQ"/><path fill="#333" d="M85-194c31 0 48 13 60 33l-1-100h32l1 261h-30c-2-10 0-23-3-31C134-8 116 4 85 4 32 4 16-35 15-94c0-66 23-100 70-100zm9 24c-40 0-46 34-46 75 0 40 6 74 45 74 42 0 51-32 51-76 0-42-9-74-50-73" id="aR"/><g id="e"><use transform="matrix(0.11172839506172827,0,0,0.11172839506172827,0,0)" xlink:href="#aQ"/><use transform="matrix(0.11172839506172827,0,0,0.11172839506172827,26.814814814814785,0)" xlink:href="#aR"/><use transform="matrix(0.11172839506172827,0,0,0.11172839506172827,49.16049382716044,0)" xlink:href="#aN"/><use transform="matrix(0.11172839506172827,0,0,0.11172839506172827,82.5672839506172,0)" xlink:href="#aI"/><use transform="matrix(0.11172839506172827,0,0,0.11172839506172827,91.39382716049373,0)" xlink:href="#aF"/></g><path fill="#333" d="M140-251c81 0 123 46 123 126C263-46 219 4 140 4 59 4 17-45 17-125s42-126 123-126zm0 227c63 0 89-41 89-101s-29-99-89-99c-61 0-89 39-89 99S79-25 140-24" id="aS"/><path fill="#333" d="M206 0h-36l-40-164L89 0H53L-1-190h32L70-26l43-164h34l41 164 42-164h31" id="aT"/><g id="f"><use transform="matrix(0.11172839506172827,0,0,0.11172839506172827,0,0)" xlink:href="#aS"/><use transform="matrix(0.11172839506172827,0,0,0.11172839506172827,31.283950617283914,0)" xlink:href="#aT"/><use transform="matrix(0.11172839506172827,0,0,0.11172839506172827,60.22160493827154,0)" xlink:href="#aF"/><use transform="matrix(0.11172839506172827,0,0,0.11172839506172827,82.5672839506172,0)" xlink:href="#aJ"/><use transform="matrix(0.11172839506172827,0,0,0.11172839506172827,104.91296296296285,0)" xlink:href="#aK"/></g><path fill="#333" d="M63-220v92h138v28H63V0H30v-248h175v28H63" id="aU"/><path fill="#333" d="M24 0v-261h32V0H24" id="aV"/><path fill="#333" d="M115-194c55 1 70 41 70 98S169 2 115 4C84 4 66-9 55-30l1 105H24l-1-265h31l2 30c10-21 28-34 59-34zm-8 174c40 0 45-34 45-75s-6-73-45-74c-42 0-51 32-51 76 0 43 10 73 51 73" id="aW"/><g id="g"><use transform="matrix(0.06172839506172839,0,0,0.06172839506172839,0,0)" xlink:href="#aU"/><use transform="matrix(0.06172839506172839,0,0,0.06172839506172839,13.518518518518517,0)" xlink:href="#aV"/><use transform="matrix(0.06172839506172839,0,0,0.06172839506172839,18.39506172839506,0)" xlink:href="#aI"/><use transform="matrix(0.06172839506172839,0,0,0.06172839506172839,23.2716049382716,0)" xlink:href="#aW"/><use transform="matrix(0.06172839506172839,0,0,0.06172839506172839,35.61728395061728,0)" xlink:href="#aU"/><use transform="matrix(0.06172839506172839,0,0,0.06172839506172839,49.1358024691358,0)" xlink:href="#aI"/><use transform="matrix(0.06172839506172839,0,0,0.06172839506172839,54.01234567901234,0)" xlink:href="#aG"/></g><path fill="#333" d="M96-169c-40 0-48 33-48 73s9 75 48 75c24 0 41-14 43-38l32 2c-6 37-31 61-74 61-59 0-76-41-82-99-10-93 101-131 147-64 4 7 5 14 7 22l-32 3c-4-21-16-35-41-35" id="aX"/><path fill="#333" d="M87 75C49 33 22-17 22-94c0-76 28-126 65-167h31c-38 41-64 92-64 168S80 34 118 75H87" id="aY"/><g id="h"><use transform="matrix(0.06172839506172839,0,0,0.06172839506172839,0,0)" xlink:href="#aQ"/><use transform="matrix(0.06172839506172839,0,0,0.06172839506172839,14.814814814814813,0)" xlink:href="#aW"/><use transform="matrix(0.06172839506172839,0,0,0.06172839506172839,27.160493827160494,0)" xlink:href="#aW"/><use transform="matrix(0.06172839506172839,0,0,0.06172839506172839,39.50617283950617,0)" xlink:href="#aV"/><use transform="matrix(0.06172839506172839,0,0,0.06172839506172839,44.382716049382715,0)" xlink:href="#aI"/><use transform="matrix(0.06172839506172839,0,0,0.06172839506172839,49.25925925925926,0)" xlink:href="#aX"/><use transform="matrix(0.06172839506172839,0,0,0.06172839506172839,60.37037037037037,0)" xlink:href="#aH"/><use transform="matrix(0.06172839506172839,0,0,0.06172839506172839,72.71604938271605,0)" xlink:href="#aG"/><use transform="matrix(0.06172839506172839,0,0,0.06172839506172839,78.88888888888889,0)" xlink:href="#aI"/><use transform="matrix(0.06172839506172839,0,0,0.06172839506172839,83.76543209876543,0)" xlink:href="#aE"/><use transform="matrix(0.06172839506172839,0,0,0.06172839506172839,96.11111111111111,0)" xlink:href="#aF"/><use transform="matrix(0.06172839506172839,0,0,0.06172839506172839,108.4567901234568,0)" xlink:href="#aY"/></g><path fill="#333" d="M240 0l2-218c-23 76-54 145-80 218h-23L58-218 59 0H30v-248h44l77 211c21-75 51-140 76-211h43V0h-30" id="aZ"/><g id="i"><use transform="matrix(0.06172839506172839,0,0,0.06172839506172839,0,0)" xlink:href="#aZ"/><use transform="matrix(0.06172839506172839,0,0,0.06172839506172839,18.456790123456788,0)" xlink:href="#aH"/><use transform="matrix(0.06172839506172839,0,0,0.06172839506172839,30.80246913580247,0)" xlink:href="#aI"/><use transform="matrix(0.06172839506172839,0,0,0.06172839506172839,35.67901234567901,0)" xlink:href="#aF"/></g><path fill="#333" d="M30-248c87 1 191-15 191 75 0 78-77 80-158 76V0H30v-248zm33 125c57 0 124 11 124-50 0-59-68-47-124-48v98" id="ba"/><path fill="#333" d="M177-190C167-65 218 103 67 71c-23-6-38-20-44-43l32-5c15 47 100 32 89-28v-30C133-14 115 1 83 1 29 1 15-40 15-95c0-56 16-97 71-98 29-1 48 16 59 35 1-10 0-23 2-32h30zM94-22c36 0 50-32 50-73 0-42-14-75-50-75-39 0-46 34-46 75s6 73 46 73" id="bb"/><path fill="#333" d="M33-261c38 41 65 92 65 168S71 34 33 75H2C39 34 66-17 66-93S39-220 2-261h31" id="bc"/><g id="j"><use transform="matrix(0.06172839506172839,0,0,0.06172839506172839,0,0)" xlink:href="#ba"/><use transform="matrix(0.06172839506172839,0,0,0.06172839506172839,14.814814814814813,0)" xlink:href="#aH"/><use transform="matrix(0.06172839506172839,0,0,0.06172839506172839,27.160493827160494,0)" xlink:href="#bb"/><use transform="matrix(0.06172839506172839,0,0,0.06172839506172839,39.50617283950617,0)" xlink:href="#aJ"/><use transform="matrix(0.06172839506172839,0,0,0.06172839506172839,51.85185185185185,0)" xlink:href="#bc"/></g><g id="k"><use transform="matrix(0.05,0,0,0.05,0,0)" xlink:href="#aQ"/><use transform="matrix(0.05,0,0,0.05,12,0)" xlink:href="#aV"/><use transform="matrix(0.05,0,0,0.05,15.949999999999998,0)" xlink:href="#aK"/><use transform="matrix(0.05,0,0,0.05,21.9,0)" xlink:href="#aJ"/><use transform="matrix(0.05,0,0,0.05,31.899999999999995,0)" xlink:href="#aH"/><use transform="matrix(0.05,0,0,0.05,41.9,0)" xlink:href="#aR"/><use transform="matrix(0.05,0,0,0.05,51.900000000000006,0)" xlink:href="#aM"/></g><use transform="matrix(0.05,0,0,0.05,0,0)" xlink:href="#aH" id="l"/><path fill="#333" d="M103-251c84 0 111 97 45 133-19 10-37 24-39 52H78c0-63 77-55 77-114 0-30-21-42-52-43-32 0-53 17-56 46l-32-2c7-45 34-72 88-72zM77 0v-35h34V0H77" id="bd"/><g id="m"><use transform="matrix(0.05,0,0,0.05,0,0)" xlink:href="#aO"/><use transform="matrix(0.05,0,0,0.05,10,0)" xlink:href="#aP"/><use transform="matrix(0.05,0,0,0.05,19,0)" xlink:href="#aJ"/><use transform="matrix(0.05,0,0,0.05,29,0)" xlink:href="#aK"/><use transform="matrix(0.05,0,0,0.05,34.95,0)" xlink:href="#bd"/></g><path fill="#333" d="M30 0v-248h33v221h125V0H30" id="be"/><g id="n"><use transform="matrix(0.06172839506172839,0,0,0.06172839506172839,0,0)" xlink:href="#be"/><use transform="matrix(0.06172839506172839,0,0,0.06172839506172839,12.345679012345679,0)" xlink:href="#aE"/><use transform="matrix(0.06172839506172839,0,0,0.06172839506172839,24.691358024691358,0)" xlink:href="#bb"/><use transform="matrix(0.06172839506172839,0,0,0.06172839506172839,37.03703703703704,0)" xlink:href="#aI"/><use transform="matrix(0.06172839506172839,0,0,0.06172839506172839,41.91358024691358,0)" xlink:href="#aF"/></g><path fill="#333" d="M137-103V0h-34v-103L8-248h37l75 118 75-118h37" id="bf"/><g id="o"><use transform="matrix(0.05,0,0,0.05,0,0)" xlink:href="#bf"/><use transform="matrix(0.05,0,0,0.05,10.35,0)" xlink:href="#aJ"/><use transform="matrix(0.05,0,0,0.05,20.35,0)" xlink:href="#aP"/></g><path fill="#333" d="M233-177c-1 41-23 64-60 70L243 0h-38l-65-103H63V0H30v-248c88 3 205-21 203 71zM63-129c60-2 137 13 137-47 0-61-80-42-137-45v92" id="bg"/><g id="p"><use transform="matrix(0.06172839506172839,0,0,0.06172839506172839,0,0)" xlink:href="#bg"/><use transform="matrix(0.06172839506172839,0,0,0.06172839506172839,15.987654320987653,0)" xlink:href="#aJ"/><use transform="matrix(0.06172839506172839,0,0,0.06172839506172839,28.333333333333332,0)" xlink:href="#bb"/><use transform="matrix(0.06172839506172839,0,0,0.06172839506172839,40.67901234567901,0)" xlink:href="#aI"/><use transform="matrix(0.06172839506172839,0,0,0.06172839506172839,45.55555555555556,0)" xlink:href="#aP"/><use transform="matrix(0.06172839506172839,0,0,0.06172839506172839,56.66666666666667,0)" xlink:href="#aG"/><use transform="matrix(0.06172839506172839,0,0,0.06172839506172839,62.83950617283951,0)" xlink:href="#aJ"/><use transform="matrix(0.06172839506172839,0,0,0.06172839506172839,75.18518518518519,0)" xlink:href="#aK"/></g><path fill="#333" d="M190 0L58-211 59 0H30v-248h39L202-35l-2-213h31V0h-41" id="bh"/><g id="q"><use transform="matrix(0.05,0,0,0.05,0,0)" xlink:href="#bh"/><use transform="matrix(0.05,0,0,0.05,12.950000000000001,0)" xlink:href="#aE"/></g><path fill="#333" d="M16-82v-28h88v28H16" id="bi"/><path fill="#333" d="M18-27v-27l151-64-151-65v-27l175 74v36" id="bj"/><path fill="#333" d="M137 0h-34L2-248h35l83 218 83-218h36" id="bk"/><g id="r"><use transform="matrix(0.05,0,0,0.05,0,0)" xlink:href="#aQ"/><use transform="matrix(0.05,0,0,0.05,12,0)" xlink:href="#aO"/><use transform="matrix(0.05,0,0,0.05,22,0)" xlink:href="#aG"/><use transform="matrix(0.05,0,0,0.05,27,0)" xlink:href="#aE"/><use transform="matrix(0.05,0,0,0.05,37,0)" xlink:href="#aN"/><use transform="matrix(0.05,0,0,0.05,51.95,0)" xlink:href="#aH"/><use transform="matrix(0.05,0,0,0.05,61.95,0)" xlink:href="#aG"/><use transform="matrix(0.05,0,0,0.05,66.95,0)" xlink:href="#aJ"/><use transform="matrix(0.05,0,0,0.05,76.95,0)" xlink:href="#aR"/><use transform="matrix(0.05,0,0,0.05,86.95,0)" xlink:href="#bi"/><use transform="matrix(0.05,0,0,0.05,92.9,0)" xlink:href="#bj"/><use transform="matrix(0.05,0,0,0.05,103.4,0)" xlink:href="#bk"/><use transform="matrix(0.05,0,0,0.05,114.05000000000001,0)" xlink:href="#aH"/><use transform="matrix(0.05,0,0,0.05,124.05000000000001,0)" xlink:href="#aV"/><use transform="matrix(0.05,0,0,0.05,128,0)" xlink:href="#aI"/><use transform="matrix(0.05,0,0,0.05,131.95,0)" xlink:href="#aR"/><use transform="matrix(0.05,0,0,0.05,141.95,0)" xlink:href="#aH"/><use transform="matrix(0.05,0,0,0.05,151.95,0)" xlink:href="#aG"/><use transform="matrix(0.05,0,0,0.05,156.95,0)" xlink:href="#aJ"/></g><g id="s"><use transform="matrix(0.05,0,0,0.05,0,0)" xlink:href="#aH"/><use transform="matrix(0.05,0,0,0.05,10,0)" xlink:href="#aF"/><use transform="matrix(0.05,0,0,0.05,20,0)" xlink:href="#aR"/></g><g id="t"><use transform="matrix(0.05,0,0,0.05,0,0)" xlink:href="#aP"/><use transform="matrix(0.05,0,0,0.05,9,0)" xlink:href="#aJ"/><use transform="matrix(0.05,0,0,0.05,19,0)" xlink:href="#aF"/><use transform="matrix(0.05,0,0,0.05,29,0)" xlink:href="#aR"/></g><g id="u"><use transform="matrix(0.05,0,0,0.05,0,0)" xlink:href="#aO"/><use transform="matrix(0.05,0,0,0.05,10,0)" xlink:href="#aP"/><use transform="matrix(0.05,0,0,0.05,19,0)" xlink:href="#aJ"/><use transform="matrix(0.05,0,0,0.05,29,0)" xlink:href="#aK"/></g><g id="v"><use transform="matrix(0.05,0,0,0.05,0,0)" xlink:href="#aX"/><use transform="matrix(0.05,0,0,0.05,9,0)" xlink:href="#aK"/><use transform="matrix(0.05,0,0,0.05,14.949999999999998,0)" xlink:href="#aJ"/><use transform="matrix(0.05,0,0,0.05,24.95,0)" xlink:href="#aR"/><use transform="matrix(0.05,0,0,0.05,34.95,0)" xlink:href="#aJ"/><use transform="matrix(0.05,0,0,0.05,44.95,0)" xlink:href="#aF"/><use transform="matrix(0.05,0,0,0.05,54.95,0)" xlink:href="#aK"/><use transform="matrix(0.05,0,0,0.05,60.900000000000006,0)" xlink:href="#aG"/><use transform="matrix(0.05,0,0,0.05,65.9,0)" xlink:href="#aI"/><use transform="matrix(0.05,0,0,0.05,69.85000000000001,0)" xlink:href="#aH"/><use transform="matrix(0.05,0,0,0.05,79.85000000000001,0)" xlink:href="#aV"/><use transform="matrix(0.05,0,0,0.05,83.80000000000001,0)" xlink:href="#aP"/></g><g id="w"><use transform="matrix(0.05,0,0,0.05,0,0)" xlink:href="#aZ"/><use transform="matrix(0.05,0,0,0.05,14.950000000000001,0)" xlink:href="#aH"/><use transform="matrix(0.05,0,0,0.05,24.950000000000003,0)" xlink:href="#aF"/><use transform="matrix(0.05,0,0,0.05,34.95,0)" xlink:href="#aH"/><use transform="matrix(0.05,0,0,0.05,44.95,0)" xlink:href="#bb"/><use transform="matrix(0.05,0,0,0.05,54.95,0)" xlink:href="#aJ"/></g><path fill="#333" d="M101-234c-31-9-42 10-38 44h38v23H63V0H32v-167H5v-23h27c-7-52 17-82 69-68v24" id="bl"/><g id="x"><use transform="matrix(0.05,0,0,0.05,0,0)" xlink:href="#aW"/><use transform="matrix(0.05,0,0,0.05,10,0)" xlink:href="#aK"/><use transform="matrix(0.05,0,0,0.05,15.949999999999998,0)" xlink:href="#aE"/><use transform="matrix(0.05,0,0,0.05,25.950000000000003,0)" xlink:href="#bl"/><use transform="matrix(0.05,0,0,0.05,30.950000000000003,0)" xlink:href="#aI"/><use transform="matrix(0.05,0,0,0.05,34.9,0)" xlink:href="#aV"/><use transform="matrix(0.05,0,0,0.05,38.85,0)" xlink:href="#aJ"/><use transform="matrix(0.05,0,0,0.05,48.85,0)" xlink:href="#aP"/></g><path fill="#333" d="M160-131c35 5 61 23 61 61C221 17 115-2 30 0v-248c76 3 177-17 177 60 0 33-19 50-47 57zm-97-11c50-1 110 9 110-42 0-47-63-36-110-37v79zm0 115c55-2 124 14 124-45 0-56-70-42-124-44v89" id="bm"/><path fill="#333" d="M143 0L79-87 56-68V0H24v-261h32v163l83-92h37l-77 82L181 0h-38" id="bn"/><g id="y"><use transform="matrix(0.05,0,0,0.05,0,0)" xlink:href="#bm"/><use transform="matrix(0.05,0,0,0.05,12,0)" xlink:href="#aE"/><use transform="matrix(0.05,0,0,0.05,22,0)" xlink:href="#aE"/><use transform="matrix(0.05,0,0,0.05,32,0)" xlink:href="#bn"/></g><g id="z"><use transform="matrix(0.05,0,0,0.05,0,0)" xlink:href="#aP"/><use transform="matrix(0.05,0,0,0.05,9,0)" xlink:href="#aV"/><use transform="matrix(0.05,0,0,0.05,12.949999999999998,0)" xlink:href="#aE"/><use transform="matrix(0.05,0,0,0.05,22.95,0)" xlink:href="#aG"/><use transform="matrix(0.05,0,0,0.05,27.950000000000003,0)" xlink:href="#aP"/></g><path fill="#333" d="M108 0H70L1-190h34L89-25l56-165h34" id="bo"/><g id="A"><use transform="matrix(0.05,0,0,0.05,0,0)" xlink:href="#aS"/><use transform="matrix(0.05,0,0,0.05,14,0)" xlink:href="#bo"/><use transform="matrix(0.05,0,0,0.05,23,0)" xlink:href="#aJ"/><use transform="matrix(0.05,0,0,0.05,33,0)" xlink:href="#aK"/><use transform="matrix(0.05,0,0,0.05,38.95,0)" xlink:href="#aK"/><use transform="matrix(0.05,0,0,0.05,44.900000000000006,0)" xlink:href="#aI"/><use transform="matrix(0.05,0,0,0.05,48.85000000000001,0)" xlink:href="#aR"/><use transform="matrix(0.05,0,0,0.05,58.85,0)" xlink:href="#aJ"/></g><g id="B"><use transform="matrix(0.05,0,0,0.05,0,0)" xlink:href="#aD"/><use transform="matrix(0.05,0,0,0.05,12.950000000000001,0)" xlink:href="#aH"/><use transform="matrix(0.05,0,0,0.05,22.950000000000003,0)" xlink:href="#aF"/><use transform="matrix(0.05,0,0,0.05,32.95,0)" xlink:href="#aX"/><use transform="matrix(0.05,0,0,0.05,41.95,0)" xlink:href="#aJ"/><use transform="matrix(0.05,0,0,0.05,51.95,0)" xlink:href="#aV"/></g><path fill="#333" d="M185-189c-5-48-123-54-124 2 14 75 158 14 163 119 3 78-121 87-175 55-17-10-28-26-33-46l33-7c5 56 141 63 141-1 0-78-155-14-162-118-5-82 145-84 179-34 5 7 8 16 11 25" id="bp"/><g id="C"><use transform="matrix(0.05,0,0,0.05,0,0)" xlink:href="#bp"/><use transform="matrix(0.05,0,0,0.05,12,0)" xlink:href="#aV"/><use transform="matrix(0.05,0,0,0.05,15.949999999999998,0)" xlink:href="#aE"/><use transform="matrix(0.05,0,0,0.05,25.950000000000003,0)" xlink:href="#aG"/><use transform="matrix(0.05,0,0,0.05,30.950000000000003,0)" xlink:href="#aP"/></g><g id="D"><use transform="matrix(0.05,0,0,0.05,0,0)" xlink:href="#aQ"/><use transform="matrix(0.05,0,0,0.05,12,0)" xlink:href="#aR"/><use transform="matrix(0.05,0,0,0.05,22,0)" xlink:href="#aN"/><use transform="matrix(0.05,0,0,0.05,36.95,0)" xlink:href="#aI"/><use transform="matrix(0.05,0,0,0.05,40.900000000000006,0)" xlink:href="#aF"/></g><g id="E"><use transform="matrix(0.05,0,0,0.05,0,0)" xlink:href="#be"/><use transform="matrix(0.05,0,0,0.05,10,0)" xlink:href="#aE"/><use transform="matrix(0.05,0,0,0.05,20,0)" xlink:href="#bb"/><use transform="matrix(0.05,0,0,0.05,30,0)" xlink:href="#aI"/><use transform="matrix(0.05,0,0,0.05,33.95,0)" xlink:href="#aF"/></g><g id="F"><use transform="matrix(0.05,0,0,0.05,0,0)" xlink:href="#bg"/><use transform="matrix(0.05,0,0,0.05,12.950000000000001,0)" xlink:href="#aJ"/><use transform="matrix(0.05,0,0,0.05,22.950000000000003,0)" xlink:href="#aV"/><use transform="matrix(0.05,0,0,0.05,26.900000000000002,0)" xlink:href="#aJ"/><use transform="matrix(0.05,0,0,0.05,36.900000000000006,0)" xlink:href="#aH"/><use transform="matrix(0.05,0,0,0.05,46.900000000000006,0)" xlink:href="#aP"/><use transform="matrix(0.05,0,0,0.05,55.900000000000006,0)" xlink:href="#aJ"/></g><g id="G"><use transform="matrix(0.05,0,0,0.05,0,0)" xlink:href="#aP"/><use transform="matrix(0.05,0,0,0.05,9,0)" xlink:href="#aV"/><use transform="matrix(0.05,0,0,0.05,12.949999999999998,0)" xlink:href="#aE"/><use transform="matrix(0.05,0,0,0.05,22.95,0)" xlink:href="#aG"/><use transform="matrix(0.05,0,0,0.05,27.950000000000003,0)" xlink:href="#aP"/></g><g id="H"><use transform="matrix(0.05,0,0,0.05,0,0)" xlink:href="#aE"/><use transform="matrix(0.05,0,0,0.05,10,0)" xlink:href="#bl"/></g><g id="I"><use transform="matrix(0.05,0,0,0.05,0,0)" xlink:href="#aL"/><use transform="matrix(0.05,0,0,0.05,14,0)" xlink:href="#aM"/><use transform="matrix(0.05,0,0,0.05,23,0)" xlink:href="#aN"/><use transform="matrix(0.05,0,0,0.05,37.95,0)" xlink:href="#aP"/></g><g id="J"><use transform="matrix(0.05,0,0,0.05,0,0)" xlink:href="#aQ"/><use transform="matrix(0.05,0,0,0.05,12,0)" xlink:href="#aW"/><use transform="matrix(0.05,0,0,0.05,22,0)" xlink:href="#aW"/><use transform="matrix(0.05,0,0,0.05,32,0)" xlink:href="#aK"/><use transform="matrix(0.05,0,0,0.05,37.95,0)" xlink:href="#aE"/><use transform="matrix(0.05,0,0,0.05,47.95,0)" xlink:href="#bo"/><use transform="matrix(0.05,0,0,0.05,56.95,0)" xlink:href="#aJ"/></g><g id="K"><use transform="matrix(0.05,0,0,0.05,0,0)" xlink:href="#aF"/><use transform="matrix(0.05,0,0,0.05,10,0)" xlink:href="#aJ"/><use transform="matrix(0.05,0,0,0.05,20,0)" xlink:href="#aT"/></g><g id="L"><use transform="matrix(0.05,0,0,0.05,0,0)" xlink:href="#bb"/><use transform="matrix(0.05,0,0,0.05,10,0)" xlink:href="#aM"/><use transform="matrix(0.05,0,0,0.05,19,0)" xlink:href="#aN"/></g><path fill="#333" d="M145-31C134-9 116 4 85 4 32 4 16-35 15-94c0-59 17-99 70-100 32-1 48 14 60 33 0-11-1-24 2-32h30l-1 268h-32zM93-21c41 0 51-33 51-76s-8-73-50-73c-40 0-46 35-46 75s5 74 45 74" id="bq"/><g id="M"><use transform="matrix(0.05,0,0,0.05,0,0)" xlink:href="#aK"/><use transform="matrix(0.05,0,0,0.05,5.95,0)" xlink:href="#aJ"/><use transform="matrix(0.05,0,0,0.05,15.949999999999998,0)" xlink:href="#bq"/><use transform="matrix(0.05,0,0,0.05,25.950000000000003,0)" xlink:href="#aO"/><use transform="matrix(0.05,0,0,0.05,35.95,0)" xlink:href="#aJ"/><use transform="matrix(0.05,0,0,0.05,45.95,0)" xlink:href="#aP"/><use transform="matrix(0.05,0,0,0.05,54.95,0)" xlink:href="#aG"/></g><g id="N"><use transform="matrix(0.05,0,0,0.05,0,0)" xlink:href="#aL"/><use transform="matrix(0.05,0,0,0.05,14,0)" xlink:href="#aM"/><use transform="matrix(0.05,0,0,0.05,23,0)" xlink:href="#aN"/></g><g id="O"><use transform="matrix(0.05,0,0,0.05,0,0)" xlink:href="#aS"/><use transform="matrix(0.05,0,0,0.05,14,0)" xlink:href="#aT"/><use transform="matrix(0.05,0,0,0.05,26.950000000000003,0)" xlink:href="#aF"/><use transform="matrix(0.05,0,0,0.05,36.95,0)" xlink:href="#aJ"/><use transform="matrix(0.05,0,0,0.05,46.95,0)" xlink:href="#aK"/></g><g id="P"><use transform="matrix(0.05,0,0,0.05,0,0)" xlink:href="#bg"/><use transform="matrix(0.05,0,0,0.05,12.950000000000001,0)" xlink:href="#aJ"/><use transform="matrix(0.05,0,0,0.05,22.950000000000003,0)" xlink:href="#bb"/><use transform="matrix(0.05,0,0,0.05,32.95,0)" xlink:href="#aI"/><use transform="matrix(0.05,0,0,0.05,36.900000000000006,0)" xlink:href="#aP"/><use transform="matrix(0.05,0,0,0.05,45.900000000000006,0)" xlink:href="#aG"/><use transform="matrix(0.05,0,0,0.05,50.900000000000006,0)" xlink:href="#aJ"/><use transform="matrix(0.05,0,0,0.05,60.900000000000006,0)" xlink:href="#aK"/></g><g id="Q"><use transform="matrix(0.05,0,0,0.05,0,0)" xlink:href="#bb"/><use transform="matrix(0.05,0,0,0.05,10,0)" xlink:href="#aM"/><use transform="matrix(0.05,0,0,0.05,19,0)" xlink:href="#aN"/></g><g id="R"><use transform="matrix(0.05,0,0,0.05,0,0)" xlink:href="#aH"/><use transform="matrix(0.05,0,0,0.05,10,0)" xlink:href="#aF"/><use transform="matrix(0.05,0,0,0.05,20,0)" xlink:href="#aR"/></g><g id="S"><use transform="matrix(0.05,0,0,0.05,0,0)" xlink:href="#aK"/><use transform="matrix(0.05,0,0,0.05,5.95,0)" xlink:href="#aH"/><use transform="matrix(0.05,0,0,0.05,15.949999999999998,0)" xlink:href="#aI"/><use transform="matrix(0.05,0,0,0.05,19.9,0)" xlink:href="#aP"/><use transform="matrix(0.05,0,0,0.05,28.899999999999995,0)" xlink:href="#aJ"/></g><g id="T"><use transform="matrix(0.05,0,0,0.05,0,0)" xlink:href="#bg"/><use transform="matrix(0.05,0,0,0.05,12.950000000000001,0)" xlink:href="#aJ"/><use transform="matrix(0.05,0,0,0.05,22.950000000000003,0)" xlink:href="#bq"/><use transform="matrix(0.05,0,0,0.05,32.95,0)" xlink:href="#aO"/><use transform="matrix(0.05,0,0,0.05,42.95,0)" xlink:href="#aJ"/><use transform="matrix(0.05,0,0,0.05,52.95,0)" xlink:href="#aP"/><use transform="matrix(0.05,0,0,0.05,61.95,0)" xlink:href="#aG"/></g><g id="U"><use transform="matrix(0.05,0,0,0.05,0,0)" xlink:href="#bl"/><use transform="matrix(0.05,0,0,0.05,5,0)" xlink:href="#aE"/><use transform="matrix(0.05,0,0,0.05,15,0)" xlink:href="#aK"/></g><g id="V"><use transform="matrix(0.05,0,0,0.05,0,0)" xlink:href="#bo"/><use transform="matrix(0.05,0,0,0.05,9,0)" xlink:href="#aJ"/><use transform="matrix(0.05,0,0,0.05,19,0)" xlink:href="#aK"/><use transform="matrix(0.05,0,0,0.05,24.95,0)" xlink:href="#aI"/><use transform="matrix(0.05,0,0,0.05,28.899999999999995,0)" xlink:href="#bl"/><use transform="matrix(0.05,0,0,0.05,33.9,0)" xlink:href="#aI"/><use transform="matrix(0.05,0,0,0.05,37.85,0)" xlink:href="#aX"/><use transform="matrix(0.05,0,0,0.05,46.85,0)" xlink:href="#aH"/><use transform="matrix(0.05,0,0,0.05,56.85,0)" xlink:href="#aG"/><use transform="matrix(0.05,0,0,0.05,61.85,0)" xlink:href="#aI"/><use transform="matrix(0.05,0,0,0.05,65.8,0)" xlink:href="#aE"/><use transform="matrix(0.05,0,0,0.05,75.8,0)" xlink:href="#aF"/></g><g id="W"><use transform="matrix(0.05,0,0,0.05,0,0)" xlink:href="#aQ"/><use transform="matrix(0.05,0,0,0.05,12,0)" xlink:href="#aR"/><use transform="matrix(0.05,0,0,0.05,22,0)" xlink:href="#aR"/></g><g id="X"><use transform="matrix(0.05,0,0,0.05,0,0)" xlink:href="#aL"/><use transform="matrix(0.05,0,0,0.05,14,0)" xlink:href="#aM"/><use transform="matrix(0.05,0,0,0.05,23,0)" xlink:href="#aN"/></g><path fill="#333" d="M106-169C34-169 62-67 57 0H25v-261h32l-1 103c12-21 28-36 61-36 89 0 53 116 60 194h-32v-121c2-32-8-49-39-48" id="br"/><g id="Y"><use transform="matrix(0.05,0,0,0.05,0,0)" xlink:href="#aT"/><use transform="matrix(0.05,0,0,0.05,12.950000000000001,0)" xlink:href="#aI"/><use transform="matrix(0.05,0,0,0.05,16.900000000000002,0)" xlink:href="#aG"/><use transform="matrix(0.05,0,0,0.05,21.900000000000002,0)" xlink:href="#br"/></g><path fill="#333" d="M68-38c1 34 0 65-14 84H32c9-13 17-26 17-46H33v-38h35" id="bs"/><g id="Z"><use transform="matrix(0.05,0,0,0.05,0,0)" xlink:href="#aV"/><use transform="matrix(0.05,0,0,0.05,3.95,0)" xlink:href="#aE"/><use transform="matrix(0.05,0,0,0.05,13.949999999999998,0)" xlink:href="#aX"/><use transform="matrix(0.05,0,0,0.05,22.95,0)" xlink:href="#aH"/><use transform="matrix(0.05,0,0,0.05,32.95,0)" xlink:href="#aG"/><use transform="matrix(0.05,0,0,0.05,37.95,0)" xlink:href="#aI"/><use transform="matrix(0.05,0,0,0.05,41.900000000000006,0)" xlink:href="#aE"/><use transform="matrix(0.05,0,0,0.05,51.900000000000006,0)" xlink:href="#aF"/><use transform="matrix(0.05,0,0,0.05,61.900000000000006,0)" xlink:href="#bs"/></g><g id="aa"><use transform="matrix(0.05,0,0,0.05,0,0)" xlink:href="#aJ"/><use transform="matrix(0.05,0,0,0.05,10,0)" xlink:href="#bq"/><use transform="matrix(0.05,0,0,0.05,20,0)" xlink:href="#aO"/><use transform="matrix(0.05,0,0,0.05,30,0)" xlink:href="#aI"/><use transform="matrix(0.05,0,0,0.05,33.95,0)" xlink:href="#aW"/><use transform="matrix(0.05,0,0,0.05,43.95,0)" xlink:href="#aN"/><use transform="matrix(0.05,0,0,0.05,58.900000000000006,0)" xlink:href="#aJ"/><use transform="matrix(0.05,0,0,0.05,68.9,0)" xlink:href="#aF"/><use transform="matrix(0.05,0,0,0.05,78.9,0)" xlink:href="#aG"/><use transform="matrix(0.05,0,0,0.05,83.9,0)" xlink:href="#bs"/></g><path fill="#333" d="M30 0v-248h187v28H63v79h144v27H63v87h162V0H30" id="bt"/><g id="ab"><use transform="matrix(0.05,0,0,0.05,0,0)" xlink:href="#bt"/><use transform="matrix(0.05,0,0,0.05,12,0)" xlink:href="#aR"/><use transform="matrix(0.05,0,0,0.05,22,0)" xlink:href="#aI"/><use transform="matrix(0.05,0,0,0.05,25.950000000000003,0)" xlink:href="#aG"/></g><g id="ac"><use transform="matrix(0.05,0,0,0.05,0,0)" xlink:href="#aW"/><use transform="matrix(0.05,0,0,0.05,10,0)" xlink:href="#aK"/><use transform="matrix(0.05,0,0,0.05,15.949999999999998,0)" xlink:href="#aE"/><use transform="matrix(0.05,0,0,0.05,25.950000000000003,0)" xlink:href="#bl"/><use transform="matrix(0.05,0,0,0.05,30.950000000000003,0)" xlink:href="#aI"/><use transform="matrix(0.05,0,0,0.05,34.9,0)" xlink:href="#aV"/><use transform="matrix(0.05,0,0,0.05,38.85,0)" xlink:href="#aJ"/></g><g id="ad"><use transform="matrix(0.05,0,0,0.05,0,0)" xlink:href="#bg"/><use transform="matrix(0.05,0,0,0.05,12.950000000000001,0)" xlink:href="#aJ"/><use transform="matrix(0.05,0,0,0.05,22.950000000000003,0)" xlink:href="#aN"/><use transform="matrix(0.05,0,0,0.05,37.900000000000006,0)" xlink:href="#aE"/><use transform="matrix(0.05,0,0,0.05,47.900000000000006,0)" xlink:href="#bo"/><use transform="matrix(0.05,0,0,0.05,56.900000000000006,0)" xlink:href="#aJ"/></g><g id="ae"><use transform="matrix(0.05,0,0,0.05,0,0)" xlink:href="#aL"/><use transform="matrix(0.05,0,0,0.05,14,0)" xlink:href="#aM"/><use transform="matrix(0.05,0,0,0.05,23,0)" xlink:href="#aN"/></g><g id="af"><use transform="matrix(0.05,0,0,0.05,0,0)" xlink:href="#bp"/><use transform="matrix(0.05,0,0,0.05,12,0)" xlink:href="#aO"/><use transform="matrix(0.05,0,0,0.05,22,0)" xlink:href="#aX"/><use transform="matrix(0.05,0,0,0.05,31,0)" xlink:href="#aX"/><use transform="matrix(0.05,0,0,0.05,40,0)" xlink:href="#aJ"/><use transform="matrix(0.05,0,0,0.05,50,0)" xlink:href="#aP"/><use transform="matrix(0.05,0,0,0.05,59,0)" xlink:href="#aP"/></g><g id="ag"><use transform="matrix(0.05,0,0,0.05,0,0)" xlink:href="#bp"/><use transform="matrix(0.05,0,0,0.05,12,0)" xlink:href="#aG"/><use transform="matrix(0.05,0,0,0.05,17,0)" xlink:href="#aH"/><use transform="matrix(0.05,0,0,0.05,27,0)" xlink:href="#aK"/><use transform="matrix(0.05,0,0,0.05,32.95,0)" xlink:href="#aG"/></g><g id="ah"><use transform="matrix(0.05,0,0,0.05,0,0)" xlink:href="#bp"/><use transform="matrix(0.05,0,0,0.05,12,0)" xlink:href="#aO"/><use transform="matrix(0.05,0,0,0.05,22,0)" xlink:href="#aX"/><use transform="matrix(0.05,0,0,0.05,31,0)" xlink:href="#aJ"/><use transform="matrix(0.05,0,0,0.05,41,0)" xlink:href="#aP"/><use transform="matrix(0.05,0,0,0.05,50,0)" xlink:href="#aP"/><use transform="matrix(0.05,0,0,0.05,59,0)" xlink:href="#aP"/><use transform="matrix(0.05,0,0,0.05,68,0)" xlink:href="#bl"/><use transform="matrix(0.05,0,0,0.05,73,0)" xlink:href="#aO"/><use transform="matrix(0.05,0,0,0.05,83,0)" xlink:href="#aV"/></g><path fill="#333" d="M115-194c53 0 69 39 70 98 0 66-23 100-70 100C84 3 66-7 56-30L54 0H23l1-261h32v101c10-23 28-34 59-34zm-8 174c40 0 45-34 45-75 0-40-5-75-45-74-42 0-51 32-51 76 0 43 10 73 51 73" id="bu"/><g id="ai"><use transform="matrix(0.05,0,0,0.05,0,0)" xlink:href="#bu"/><use transform="matrix(0.05,0,0,0.05,10,0)" xlink:href="#aE"/><use transform="matrix(0.05,0,0,0.05,20,0)" xlink:href="#aE"/><use transform="matrix(0.05,0,0,0.05,30,0)" xlink:href="#bn"/><use transform="matrix(0.05,0,0,0.05,39,0)" xlink:href="#aI"/><use transform="matrix(0.05,0,0,0.05,42.95,0)" xlink:href="#aF"/><use transform="matrix(0.05,0,0,0.05,52.95,0)" xlink:href="#bb"/></g><g id="aj"><use transform="matrix(0.05,0,0,0.05,0,0)" xlink:href="#bp"/><use transform="matrix(0.05,0,0,0.05,12,0)" xlink:href="#aO"/><use transform="matrix(0.05,0,0,0.05,22,0)" xlink:href="#aX"/><use transform="matrix(0.05,0,0,0.05,31,0)" xlink:href="#aX"/><use transform="matrix(0.05,0,0,0.05,40,0)" xlink:href="#aJ"/><use transform="matrix(0.05,0,0,0.05,50,0)" xlink:href="#aP"/><use transform="matrix(0.05,0,0,0.05,59,0)" xlink:href="#aP"/><use transform="matrix(0.05,0,0,0.05,68,0)" xlink:href="#bl"/><use transform="matrix(0.05,0,0,0.05,73,0)" xlink:href="#aO"/><use transform="matrix(0.05,0,0,0.05,83,0)" xlink:href="#aV"/></g><g id="ak"><use transform="matrix(0.05,0,0,0.05,0,0)" xlink:href="#bh"/><use transform="matrix(0.05,0,0,0.05,12.950000000000001,0)" xlink:href="#aE"/><use transform="matrix(0.05,0,0,0.05,22.950000000000003,0)" xlink:href="#aG"/><use transform="matrix(0.05,0,0,0.05,27.950000000000003,0)" xlink:href="#aI"/><use transform="matrix(0.05,0,0,0.05,31.900000000000002,0)" xlink:href="#bl"/><use transform="matrix(0.05,0,0,0.05,36.900000000000006,0)" xlink:href="#aI"/><use transform="matrix(0.05,0,0,0.05,40.85000000000001,0)" xlink:href="#aX"/><use transform="matrix(0.05,0,0,0.05,49.85000000000001,0)" xlink:href="#aH"/><use transform="matrix(0.05,0,0,0.05,59.85,0)" xlink:href="#aG"/><use transform="matrix(0.05,0,0,0.05,64.85000000000001,0)" xlink:href="#aI"/><use transform="matrix(0.05,0,0,0.05,68.80000000000001,0)" xlink:href="#aE"/><use transform="matrix(0.05,0,0,0.05,78.80000000000001,0)" xlink:href="#aF"/></g><g id="al"><use transform="matrix(0.05,0,0,0.05,0,0)" xlink:href="#aP"/><use transform="matrix(0.05,0,0,0.05,9,0)" xlink:href="#aJ"/><use transform="matrix(0.05,0,0,0.05,19,0)" xlink:href="#aF"/><use transform="matrix(0.05,0,0,0.05,29,0)" xlink:href="#aG"/></g><g id="am"><use transform="matrix(0.05,0,0,0.05,0,0)" xlink:href="#aQ"/><use transform="matrix(0.05,0,0,0.05,12,0)" xlink:href="#aW"/><use transform="matrix(0.05,0,0,0.05,22,0)" xlink:href="#aW"/><use transform="matrix(0.05,0,0,0.05,32,0)" xlink:href="#aK"/><use transform="matrix(0.05,0,0,0.05,37.95,0)" xlink:href="#aE"/><use transform="matrix(0.05,0,0,0.05,47.95,0)" xlink:href="#bo"/><use transform="matrix(0.05,0,0,0.05,56.95,0)" xlink:href="#aJ"/><use transform="matrix(0.05,0,0,0.05,66.95,0)" xlink:href="#aR"/></g><g id="an"><use transform="matrix(0.05,0,0,0.05,0,0)" xlink:href="#aP"/><use transform="matrix(0.05,0,0,0.05,9,0)" xlink:href="#aO"/><use transform="matrix(0.05,0,0,0.05,19,0)" xlink:href="#aX"/><use transform="matrix(0.05,0,0,0.05,28,0)" xlink:href="#aX"/><use transform="matrix(0.05,0,0,0.05,37,0)" xlink:href="#aJ"/><use transform="matrix(0.05,0,0,0.05,47,0)" xlink:href="#aP"/><use transform="matrix(0.05,0,0,0.05,56,0)" xlink:href="#aP"/><use transform="matrix(0.05,0,0,0.05,65,0)" xlink:href="#bl"/><use transform="matrix(0.05,0,0,0.05,70,0)" xlink:href="#aO"/><use transform="matrix(0.05,0,0,0.05,80,0)" xlink:href="#aV"/></g><g id="ao"><use transform="matrix(0.05,0,0,0.05,0,0)" xlink:href="#ba"/><use transform="matrix(0.05,0,0,0.05,12,0)" xlink:href="#aK"/><use transform="matrix(0.05,0,0,0.05,17.95,0)" xlink:href="#aE"/><use transform="matrix(0.05,0,0,0.05,27.950000000000003,0)" xlink:href="#bl"/><use transform="matrix(0.05,0,0,0.05,32.95,0)" xlink:href="#aI"/><use transform="matrix(0.05,0,0,0.05,36.900000000000006,0)" xlink:href="#aV"/><use transform="matrix(0.05,0,0,0.05,40.85000000000001,0)" xlink:href="#aJ"/></g><g id="ap"><use transform="matrix(0.05,0,0,0.05,0,0)" xlink:href="#aN"/><use transform="matrix(0.05,0,0,0.05,14.950000000000001,0)" xlink:href="#aH"/><use transform="matrix(0.05,0,0,0.05,24.950000000000003,0)" xlink:href="#aF"/><use transform="matrix(0.05,0,0,0.05,34.95,0)" xlink:href="#aH"/><use transform="matrix(0.05,0,0,0.05,44.95,0)" xlink:href="#bb"/><use transform="matrix(0.05,0,0,0.05,54.95,0)" xlink:href="#aJ"/><use transform="matrix(0.05,0,0,0.05,64.95,0)" xlink:href="#aR"/></g><g id="aq"><use transform="matrix(0.05,0,0,0.05,0,0)" xlink:href="#bt"/><use transform="matrix(0.05,0,0,0.05,12,0)" xlink:href="#aF"/><use transform="matrix(0.05,0,0,0.05,22,0)" xlink:href="#aR"/></g><path fill="#333" d="M127-220V0H93v-220H8v-28h204v28h-85" id="bv"/><path fill="#333" d="M141 0L90-78 38 0H4l68-98-65-92h35l48 74 47-74h35l-64 92 68 98h-35" id="bw"/><g id="ar"><use transform="matrix(0.05,0,0,0.05,0,0)" xlink:href="#bv"/><use transform="matrix(0.05,0,0,0.05,8.950000000000001,0)" xlink:href="#aJ"/><use transform="matrix(0.05,0,0,0.05,18.950000000000003,0)" xlink:href="#bw"/><use transform="matrix(0.05,0,0,0.05,27.950000000000003,0)" xlink:href="#aG"/></g><g id="as"><use transform="matrix(0.05,0,0,0.05,0,0)" xlink:href="#bp"/><use transform="matrix(0.05,0,0,0.05,12,0)" xlink:href="#aV"/><use transform="matrix(0.05,0,0,0.05,15.949999999999998,0)" xlink:href="#aE"/><use transform="matrix(0.05,0,0,0.05,25.950000000000003,0)" xlink:href="#aG"/><use transform="matrix(0.05,0,0,0.05,30.950000000000003,0)" xlink:href="#aP"/></g><g id="at"><use transform="matrix(0.05,0,0,0.05,0,0)" xlink:href="#aK"/><use transform="matrix(0.05,0,0,0.05,5.95,0)" xlink:href="#aJ"/><use transform="matrix(0.05,0,0,0.05,15.949999999999998,0)" xlink:href="#aV"/><use transform="matrix(0.05,0,0,0.05,19.9,0)" xlink:href="#aJ"/><use transform="matrix(0.05,0,0,0.05,29.899999999999995,0)" xlink:href="#aH"/><use transform="matrix(0.05,0,0,0.05,39.9,0)" xlink:href="#aP"/><use transform="matrix(0.05,0,0,0.05,48.9,0)" xlink:href="#aJ"/><use transform="matrix(0.05,0,0,0.05,58.900000000000006,0)" xlink:href="#aR"/></g><g id="au"><use transform="matrix(0.05,0,0,0.05,0,0)" xlink:href="#aL"/><use transform="matrix(0.05,0,0,0.05,14,0)" xlink:href="#aM"/><use transform="matrix(0.05,0,0,0.05,23,0)" xlink:href="#aN"/><use transform="matrix(0.05,0,0,0.05,37.95,0)" xlink:href="#aP"/></g><g id="av"><use transform="matrix(0.05,0,0,0.05,0,0)" xlink:href="#aQ"/><use transform="matrix(0.05,0,0,0.05,12,0)" xlink:href="#aR"/><use transform="matrix(0.05,0,0,0.05,22,0)" xlink:href="#aR"/><use transform="matrix(0.05,0,0,0.05,32,0)" xlink:href="#aJ"/><use transform="matrix(0.05,0,0,0.05,42,0)" xlink:href="#aR"/></g><g id="aw"><use transform="matrix(0.05,0,0,0.05,0,0)" xlink:href="#bg"/><use transform="matrix(0.05,0,0,0.05,12.950000000000001,0)" xlink:href="#aJ"/><use transform="matrix(0.05,0,0,0.05,22.950000000000003,0)" xlink:href="#bq"/><use transform="matrix(0.05,0,0,0.05,32.95,0)" xlink:href="#aO"/><use transform="matrix(0.05,0,0,0.05,42.95,0)" xlink:href="#aJ"/><use transform="matrix(0.05,0,0,0.05,52.95,0)" xlink:href="#aP"/><use transform="matrix(0.05,0,0,0.05,61.95,0)" xlink:href="#aG"/><use transform="matrix(0.05,0,0,0.05,66.95,0)" xlink:href="#aJ"/><use transform="matrix(0.05,0,0,0.05,76.95,0)" xlink:href="#aR"/></g><g id="ax"><use transform="matrix(0.05,0,0,0.05,0,0)" xlink:href="#aH"/><use transform="matrix(0.05,0,0,0.05,10,0)" xlink:href="#aX"/><use transform="matrix(0.05,0,0,0.05,19,0)" xlink:href="#aX"/><use transform="matrix(0.05,0,0,0.05,28,0)" xlink:href="#aJ"/><use transform="matrix(0.05,0,0,0.05,38,0)" xlink:href="#aP"/><use transform="matrix(0.05,0,0,0.05,47,0)" xlink:href="#aP"/><use transform="matrix(0.05,0,0,0.05,56,0)" xlink:href="#aJ"/><use transform="matrix(0.05,0,0,0.05,66,0)" xlink:href="#aR"/></g><g id="ay"><use transform="matrix(0.05,0,0,0.05,0,0)" xlink:href="#aN"/><use transform="matrix(0.05,0,0,0.05,14.950000000000001,0)" xlink:href="#aH"/><use transform="matrix(0.05,0,0,0.05,24.950000000000003,0)" xlink:href="#aI"/><use transform="matrix(0.05,0,0,0.05,28.900000000000002,0)" xlink:href="#aF"/></g><g id="az"><use transform="matrix(0.05,0,0,0.05,0,0)" xlink:href="#aW"/><use transform="matrix(0.05,0,0,0.05,10,0)" xlink:href="#aH"/><use transform="matrix(0.05,0,0,0.05,20,0)" xlink:href="#bb"/><use transform="matrix(0.05,0,0,0.05,30,0)" xlink:href="#aJ"/></g><g id="aA"><use transform="matrix(0.05,0,0,0.05,0,0)" xlink:href="#aJ"/><use transform="matrix(0.05,0,0,0.05,10,0)" xlink:href="#aR"/><use transform="matrix(0.05,0,0,0.05,20,0)" xlink:href="#aI"/><use transform="matrix(0.05,0,0,0.05,23.95,0)" xlink:href="#aG"/><use transform="matrix(0.05,0,0,0.05,28.950000000000003,0)" xlink:href="#aJ"/><use transform="matrix(0.05,0,0,0.05,38.95,0)" xlink:href="#aR"/></g><g id="aB"><use transform="matrix(0.05,0,0,0.05,0,0)" xlink:href="#bg"/><use transform="matrix(0.05,0,0,0.05,12.950000000000001,0)" xlink:href="#aJ"/><use transform="matrix(0.05,0,0,0.05,22.950000000000003,0)" xlink:href="#aN"/><use transform="matrix(0.05,0,0,0.05,37.900000000000006,0)" xlink:href="#aE"/><use transform="matrix(0.05,0,0,0.05,47.900000000000006,0)" xlink:href="#bo"/><use transform="matrix(0.05,0,0,0.05,56.900000000000006,0)" xlink:href="#aJ"/><use transform="matrix(0.05,0,0,0.05,66.9,0)" xlink:href="#aR"/></g><g id="aC"><use transform="matrix(0.05,0,0,0.05,0,0)" xlink:href="#bb"/><use transform="matrix(0.05,0,0,0.05,10,0)" xlink:href="#aM"/><use transform="matrix(0.05,0,0,0.05,19,0)" xlink:href="#aN"/></g></defs></g></svg>